<svg width="31" height="23" viewBox="0 0 31 23" fill="none" xmlns="http://www.w3.org/2000/svg">
<path d="M1.90115 2.11131C0.00601152 4.20663 0.00601152 7.61305 1.90115 9.7084L12.3086 21.2153C14.2037 23.3106 17.2847 23.3106 19.1798 21.2153C21.0749 19.1199 21.0749 15.7135 19.1798 13.6181L8.77237 2.11131C6.87723 0.0159559 3.7963 0.0159559 1.90115 2.11131Z" fill="#6D31ED"/>
<path d="M22.7176 16.8529C22.5958 14.8804 21.8494 13.0426 20.5683 11.6262C17.9384 8.67745 18.002 6.90648 20.5683 4.02907C20.5683 4.02907 20.4413 3.96468 22.2941 2.11516C24.1468 0.265643 27.2702 0.0198046 29.1653 2.11516C31.0604 4.21052 31.0604 7.6169 29.1653 9.71225L22.7123 16.847L22.7176 16.8529Z" fill="#15ABFF"/>
</svg>
